<mxfile host="Electron" agent="Mozilla/5.0 (Macintosh; Intel Mac OS X 10_15_7) AppleWebKit/537.36 (KHTML, like Gecko) draw.io/27.0.9 Chrome/134.0.6998.205 Electron/35.4.0 Safari/537.36" version="27.0.9">
  <diagram name="第 1 页" id="SPS97gBQKsRcNwZirlXg">
    <mxGraphModel dx="706" dy="604" grid="0" gridSize="10" guides="1" tooltips="1" connect="1" arrows="1" fold="1" page="1" pageScale="1" pageWidth="827" pageHeight="1169" math="0" shadow="0">
      <root>
        <mxCell id="0" />
        <mxCell id="1" parent="0" />
        <mxCell id="80clTf2pWjjTo-rtNDyn-3" value="" style="rounded=0;whiteSpace=wrap;html=1;dashed=1;fillColor=none;fontColor=#000000;strokeWidth=1;" vertex="1" parent="1">
          <mxGeometry x="70" y="130" width="120" height="330" as="geometry" />
        </mxCell>
        <mxCell id="80clTf2pWjjTo-rtNDyn-8" value="&lt;font style=&quot;font-size: 19px;&quot;&gt;Source&lt;/font&gt;" style="rounded=1;whiteSpace=wrap;html=1;strokeColor=none;strokeWidth=1;fontColor=#000000;" vertex="1" parent="1">
          <mxGeometry x="95" y="120" width="65" height="20" as="geometry" />
        </mxCell>
        <mxCell id="80clTf2pWjjTo-rtNDyn-11" value="" style="rounded=0;whiteSpace=wrap;html=1;fillColor=none;fontColor=#000000;strokeWidth=1;" vertex="1" parent="1">
          <mxGeometry x="290" y="130" width="170" height="330" as="geometry" />
        </mxCell>
        <mxCell id="80clTf2pWjjTo-rtNDyn-12" value="&lt;font style=&quot;font-size: 19px;&quot;&gt;Bronze Layer&lt;/font&gt;" style="rounded=1;whiteSpace=wrap;html=1;strokeColor=#d79b00;strokeWidth=1;fillColor=#ffe6cc;fontColor=#000000;" vertex="1" parent="1">
          <mxGeometry x="320" y="90" width="110" height="60" as="geometry" />
        </mxCell>
        <mxCell id="80clTf2pWjjTo-rtNDyn-27" style="edgeStyle=orthogonalEdgeStyle;rounded=0;orthogonalLoop=1;jettySize=auto;html=1;entryX=0;entryY=0.5;entryDx=0;entryDy=0;fontColor=#000000;strokeWidth=1;" edge="1" parent="1" source="80clTf2pWjjTo-rtNDyn-9" target="80clTf2pWjjTo-rtNDyn-13">
          <mxGeometry relative="1" as="geometry" />
        </mxCell>
        <mxCell id="80clTf2pWjjTo-rtNDyn-28" style="edgeStyle=orthogonalEdgeStyle;rounded=0;orthogonalLoop=1;jettySize=auto;html=1;entryX=0;entryY=0.5;entryDx=0;entryDy=0;fontColor=#000000;strokeWidth=1;" edge="1" parent="1" source="80clTf2pWjjTo-rtNDyn-9" target="80clTf2pWjjTo-rtNDyn-19">
          <mxGeometry relative="1" as="geometry" />
        </mxCell>
        <mxCell id="80clTf2pWjjTo-rtNDyn-9" value="CRM" style="image;aspect=fixed;html=1;points=[];align=center;fontSize=12;image=img/lib/azure2/general/Folder_Blank.svg;fontColor=#000000;strokeWidth=1;" vertex="1" parent="1">
          <mxGeometry x="107.82" y="190" width="44.36" height="36" as="geometry" />
        </mxCell>
        <mxCell id="80clTf2pWjjTo-rtNDyn-40" style="edgeStyle=orthogonalEdgeStyle;rounded=0;orthogonalLoop=1;jettySize=auto;html=1;exitX=1;exitY=0.5;exitDx=0;exitDy=0;" edge="1" parent="1" source="80clTf2pWjjTo-rtNDyn-13" target="80clTf2pWjjTo-rtNDyn-34">
          <mxGeometry relative="1" as="geometry" />
        </mxCell>
        <mxCell id="80clTf2pWjjTo-rtNDyn-13" value="&lt;font style=&quot;font-size: 14px;&quot;&gt;crm_cust_info&lt;/font&gt;" style="rounded=1;whiteSpace=wrap;html=1;strokeColor=#6c8ebf;strokeWidth=1;fillColor=#dae8fc;fontColor=#000000;" vertex="1" parent="1">
          <mxGeometry x="312.5" y="161" width="127.5" height="20" as="geometry" />
        </mxCell>
        <mxCell id="80clTf2pWjjTo-rtNDyn-41" style="edgeStyle=orthogonalEdgeStyle;rounded=0;orthogonalLoop=1;jettySize=auto;html=1;exitX=1;exitY=0.5;exitDx=0;exitDy=0;entryX=0;entryY=0.5;entryDx=0;entryDy=0;" edge="1" parent="1" source="80clTf2pWjjTo-rtNDyn-15" target="80clTf2pWjjTo-rtNDyn-35">
          <mxGeometry relative="1" as="geometry" />
        </mxCell>
        <mxCell id="80clTf2pWjjTo-rtNDyn-15" value="&lt;font style=&quot;font-size: 14px;&quot;&gt;crm_sales_details&lt;/font&gt;" style="rounded=1;whiteSpace=wrap;html=1;strokeColor=#6c8ebf;strokeWidth=1;fillColor=#dae8fc;fontColor=#000000;" vertex="1" parent="1">
          <mxGeometry x="312.5" y="198" width="127.5" height="20" as="geometry" />
        </mxCell>
        <mxCell id="80clTf2pWjjTo-rtNDyn-42" style="edgeStyle=orthogonalEdgeStyle;rounded=0;orthogonalLoop=1;jettySize=auto;html=1;exitX=1;exitY=0.5;exitDx=0;exitDy=0;entryX=0;entryY=0.5;entryDx=0;entryDy=0;" edge="1" parent="1" source="80clTf2pWjjTo-rtNDyn-19" target="80clTf2pWjjTo-rtNDyn-36">
          <mxGeometry relative="1" as="geometry" />
        </mxCell>
        <mxCell id="80clTf2pWjjTo-rtNDyn-19" value="&lt;font style=&quot;font-size: 14px;&quot;&gt;crm_prd_info&lt;/font&gt;" style="rounded=1;whiteSpace=wrap;html=1;strokeColor=#6c8ebf;strokeWidth=1;fillColor=#dae8fc;fontColor=#000000;" vertex="1" parent="1">
          <mxGeometry x="312.5" y="240" width="127.5" height="20" as="geometry" />
        </mxCell>
        <mxCell id="80clTf2pWjjTo-rtNDyn-23" style="rounded=0;orthogonalLoop=1;jettySize=auto;html=1;entryX=0;entryY=0.5;entryDx=0;entryDy=0;fontColor=#000000;strokeWidth=1;" edge="1" parent="1" source="80clTf2pWjjTo-rtNDyn-9" target="80clTf2pWjjTo-rtNDyn-15">
          <mxGeometry relative="1" as="geometry" />
        </mxCell>
        <mxCell id="80clTf2pWjjTo-rtNDyn-29" style="edgeStyle=orthogonalEdgeStyle;rounded=0;orthogonalLoop=1;jettySize=auto;html=1;entryX=0;entryY=0.5;entryDx=0;entryDy=0;fontColor=#000000;strokeWidth=1;" edge="1" parent="1" source="80clTf2pWjjTo-rtNDyn-10" target="80clTf2pWjjTo-rtNDyn-21">
          <mxGeometry relative="1" as="geometry" />
        </mxCell>
        <mxCell id="80clTf2pWjjTo-rtNDyn-30" style="edgeStyle=orthogonalEdgeStyle;rounded=0;orthogonalLoop=1;jettySize=auto;html=1;entryX=0;entryY=0.5;entryDx=0;entryDy=0;fontColor=#000000;strokeWidth=1;" edge="1" parent="1" source="80clTf2pWjjTo-rtNDyn-10" target="80clTf2pWjjTo-rtNDyn-20">
          <mxGeometry relative="1" as="geometry" />
        </mxCell>
        <mxCell id="80clTf2pWjjTo-rtNDyn-31" style="edgeStyle=orthogonalEdgeStyle;rounded=0;orthogonalLoop=1;jettySize=auto;html=1;entryX=0;entryY=0.5;entryDx=0;entryDy=0;fontColor=#000000;strokeWidth=1;" edge="1" parent="1" source="80clTf2pWjjTo-rtNDyn-10" target="80clTf2pWjjTo-rtNDyn-22">
          <mxGeometry relative="1" as="geometry" />
        </mxCell>
        <mxCell id="80clTf2pWjjTo-rtNDyn-10" value="ERP" style="image;aspect=fixed;html=1;points=[];align=center;fontSize=12;image=img/lib/azure2/general/Folder_Blank.svg;fontColor=#000000;strokeWidth=1;" vertex="1" parent="1">
          <mxGeometry x="107.82" y="370" width="44.36" height="36" as="geometry" />
        </mxCell>
        <mxCell id="80clTf2pWjjTo-rtNDyn-44" style="edgeStyle=orthogonalEdgeStyle;rounded=0;orthogonalLoop=1;jettySize=auto;html=1;exitX=1;exitY=0.5;exitDx=0;exitDy=0;" edge="1" parent="1" source="80clTf2pWjjTo-rtNDyn-20" target="80clTf2pWjjTo-rtNDyn-37">
          <mxGeometry relative="1" as="geometry" />
        </mxCell>
        <mxCell id="80clTf2pWjjTo-rtNDyn-20" value="&lt;font style=&quot;font-size: 14px;&quot;&gt;erp_cust_az12&lt;/font&gt;" style="rounded=1;whiteSpace=wrap;html=1;strokeColor=#6c8ebf;strokeWidth=1;fillColor=#dae8fc;fontColor=#000000;" vertex="1" parent="1">
          <mxGeometry x="311.25" y="344" width="127.5" height="20" as="geometry" />
        </mxCell>
        <mxCell id="80clTf2pWjjTo-rtNDyn-43" style="edgeStyle=orthogonalEdgeStyle;rounded=0;orthogonalLoop=1;jettySize=auto;html=1;exitX=1;exitY=0.5;exitDx=0;exitDy=0;entryX=0;entryY=0.5;entryDx=0;entryDy=0;" edge="1" parent="1" source="80clTf2pWjjTo-rtNDyn-21" target="80clTf2pWjjTo-rtNDyn-38">
          <mxGeometry relative="1" as="geometry" />
        </mxCell>
        <mxCell id="80clTf2pWjjTo-rtNDyn-21" value="&lt;span style=&quot;font-size: 14px;&quot;&gt;erp_loc_a101&lt;/span&gt;" style="rounded=1;whiteSpace=wrap;html=1;strokeColor=#6c8ebf;strokeWidth=1;fillColor=#dae8fc;fontColor=#000000;" vertex="1" parent="1">
          <mxGeometry x="311.25" y="378" width="127.5" height="20" as="geometry" />
        </mxCell>
        <mxCell id="80clTf2pWjjTo-rtNDyn-45" style="edgeStyle=orthogonalEdgeStyle;rounded=0;orthogonalLoop=1;jettySize=auto;html=1;exitX=1;exitY=0.5;exitDx=0;exitDy=0;entryX=0;entryY=0.5;entryDx=0;entryDy=0;" edge="1" parent="1" source="80clTf2pWjjTo-rtNDyn-22" target="80clTf2pWjjTo-rtNDyn-39">
          <mxGeometry relative="1" as="geometry" />
        </mxCell>
        <mxCell id="80clTf2pWjjTo-rtNDyn-22" value="&lt;span style=&quot;font-size: 14px;&quot;&gt;erp_px_cat_g1v2&lt;/span&gt;" style="rounded=1;whiteSpace=wrap;html=1;strokeColor=#6c8ebf;strokeWidth=1;fillColor=#dae8fc;fontColor=#000000;" vertex="1" parent="1">
          <mxGeometry x="311.25" y="414" width="127.5" height="20" as="geometry" />
        </mxCell>
        <mxCell id="80clTf2pWjjTo-rtNDyn-32" value="" style="rounded=0;whiteSpace=wrap;html=1;fillColor=none;fontColor=#000000;strokeWidth=1;" vertex="1" parent="1">
          <mxGeometry x="550" y="130" width="170" height="330" as="geometry" />
        </mxCell>
        <mxCell id="80clTf2pWjjTo-rtNDyn-33" value="&lt;font style=&quot;font-size: 19px;&quot;&gt;Silver Layer&lt;/font&gt;" style="rounded=1;whiteSpace=wrap;html=1;strokeColor=#666666;strokeWidth=1;fillColor=#f5f5f5;fontColor=#000000;" vertex="1" parent="1">
          <mxGeometry x="580" y="90" width="110" height="60" as="geometry" />
        </mxCell>
        <mxCell id="80clTf2pWjjTo-rtNDyn-55" style="rounded=0;orthogonalLoop=1;jettySize=auto;html=1;exitX=1;exitY=0.5;exitDx=0;exitDy=0;entryX=0;entryY=0.5;entryDx=0;entryDy=0;jumpStyle=gap;" edge="1" parent="1" source="80clTf2pWjjTo-rtNDyn-34" target="80clTf2pWjjTo-rtNDyn-52">
          <mxGeometry relative="1" as="geometry" />
        </mxCell>
        <mxCell id="80clTf2pWjjTo-rtNDyn-34" value="&lt;font style=&quot;font-size: 14px;&quot;&gt;crm_cust_info&lt;/font&gt;" style="rounded=1;whiteSpace=wrap;html=1;strokeColor=light-dark(#0a0a0a, #5c79a3);strokeWidth=1;fillColor=none;fontColor=#000000;" vertex="1" parent="1">
          <mxGeometry x="572.5" y="161" width="127.5" height="20" as="geometry" />
        </mxCell>
        <mxCell id="80clTf2pWjjTo-rtNDyn-35" value="&lt;font style=&quot;font-size: 14px;&quot;&gt;crm_sales_details&lt;/font&gt;" style="rounded=1;whiteSpace=wrap;html=1;strokeColor=light-dark(#0a0a0a, #5c79a3);strokeWidth=1;fillColor=none;fontColor=#000000;" vertex="1" parent="1">
          <mxGeometry x="572.5" y="198" width="127.5" height="20" as="geometry" />
        </mxCell>
        <mxCell id="80clTf2pWjjTo-rtNDyn-59" style="rounded=0;orthogonalLoop=1;jettySize=auto;html=1;exitX=1;exitY=0.5;exitDx=0;exitDy=0;entryX=0;entryY=0.5;entryDx=0;entryDy=0;jumpStyle=gap;" edge="1" parent="1" source="80clTf2pWjjTo-rtNDyn-36" target="80clTf2pWjjTo-rtNDyn-53">
          <mxGeometry relative="1" as="geometry" />
        </mxCell>
        <mxCell id="80clTf2pWjjTo-rtNDyn-36" value="&lt;font style=&quot;font-size: 14px;&quot;&gt;crm_prd_info&lt;/font&gt;" style="rounded=1;whiteSpace=wrap;html=1;strokeColor=light-dark(#0a0a0a, #5c79a3);strokeWidth=1;fillColor=none;fontColor=#000000;" vertex="1" parent="1">
          <mxGeometry x="572.5" y="240" width="127.5" height="20" as="geometry" />
        </mxCell>
        <mxCell id="80clTf2pWjjTo-rtNDyn-56" style="rounded=0;orthogonalLoop=1;jettySize=auto;html=1;exitX=1;exitY=0.5;exitDx=0;exitDy=0;entryX=0;entryY=0.5;entryDx=0;entryDy=0;jumpStyle=gap;" edge="1" parent="1" source="80clTf2pWjjTo-rtNDyn-37" target="80clTf2pWjjTo-rtNDyn-52">
          <mxGeometry relative="1" as="geometry" />
        </mxCell>
        <mxCell id="80clTf2pWjjTo-rtNDyn-37" value="&lt;font style=&quot;font-size: 14px;&quot;&gt;erp_cust_az12&lt;/font&gt;" style="rounded=1;whiteSpace=wrap;html=1;strokeColor=light-dark(#0a0a0a, #5c79a3);strokeWidth=1;fillColor=none;fontColor=#000000;" vertex="1" parent="1">
          <mxGeometry x="571.25" y="344" width="127.5" height="20" as="geometry" />
        </mxCell>
        <mxCell id="80clTf2pWjjTo-rtNDyn-57" style="rounded=0;orthogonalLoop=1;jettySize=auto;html=1;exitX=1;exitY=0.5;exitDx=0;exitDy=0;entryX=0;entryY=0.5;entryDx=0;entryDy=0;jumpStyle=gap;" edge="1" parent="1" source="80clTf2pWjjTo-rtNDyn-38" target="80clTf2pWjjTo-rtNDyn-52">
          <mxGeometry relative="1" as="geometry" />
        </mxCell>
        <mxCell id="80clTf2pWjjTo-rtNDyn-38" value="&lt;span style=&quot;font-size: 14px;&quot;&gt;erp_loc_a101&lt;/span&gt;" style="rounded=1;whiteSpace=wrap;html=1;strokeColor=light-dark(#0a0a0a, #5c79a3);strokeWidth=1;fillColor=none;fontColor=#000000;" vertex="1" parent="1">
          <mxGeometry x="571.25" y="378" width="127.5" height="20" as="geometry" />
        </mxCell>
        <mxCell id="80clTf2pWjjTo-rtNDyn-58" style="rounded=0;orthogonalLoop=1;jettySize=auto;html=1;exitX=1;exitY=0.5;exitDx=0;exitDy=0;entryX=0;entryY=0.5;entryDx=0;entryDy=0;jumpStyle=gap;" edge="1" parent="1" source="80clTf2pWjjTo-rtNDyn-39" target="80clTf2pWjjTo-rtNDyn-53">
          <mxGeometry relative="1" as="geometry" />
        </mxCell>
        <mxCell id="80clTf2pWjjTo-rtNDyn-39" value="&lt;span style=&quot;font-size: 14px;&quot;&gt;erp_px_cat_g1v2&lt;/span&gt;" style="rounded=1;whiteSpace=wrap;html=1;strokeColor=light-dark(#0a0a0a, #5c79a3);strokeWidth=1;fillColor=none;fontColor=#000000;" vertex="1" parent="1">
          <mxGeometry x="571.25" y="414" width="127.5" height="20" as="geometry" />
        </mxCell>
        <mxCell id="80clTf2pWjjTo-rtNDyn-46" value="" style="rounded=0;whiteSpace=wrap;html=1;fillColor=none;fontColor=#000000;strokeWidth=1;strokeColor=light-dark(#FDD432,#261D00);" vertex="1" parent="1">
          <mxGeometry x="810" y="130" width="170" height="330" as="geometry" />
        </mxCell>
        <mxCell id="80clTf2pWjjTo-rtNDyn-47" value="&lt;font style=&quot;font-size: 19px;&quot;&gt;Gold Layer&lt;/font&gt;" style="rounded=1;whiteSpace=wrap;html=1;strokeColor=light-dark(#FDD432,#261D00);strokeWidth=1;fillColor=#fff2cc;" vertex="1" parent="1">
          <mxGeometry x="840" y="90" width="110" height="60" as="geometry" />
        </mxCell>
        <mxCell id="80clTf2pWjjTo-rtNDyn-48" value="&lt;span style=&quot;font-size: 14px;&quot;&gt;fact_sale&lt;/span&gt;" style="rounded=1;whiteSpace=wrap;html=1;strokeColor=light-dark(#FDD432,#261D00);strokeWidth=1;fillColor=none;fontColor=#000000;" vertex="1" parent="1">
          <mxGeometry x="831.25" y="186" width="127.5" height="44" as="geometry" />
        </mxCell>
        <mxCell id="80clTf2pWjjTo-rtNDyn-52" value="&lt;span style=&quot;font-size: 14px;&quot;&gt;dim_customers&lt;/span&gt;" style="rounded=1;whiteSpace=wrap;html=1;strokeColor=light-dark(#FDD432,#261D00);strokeWidth=1;fillColor=none;fontColor=#000000;" vertex="1" parent="1">
          <mxGeometry x="831.25" y="262" width="127.5" height="48" as="geometry" />
        </mxCell>
        <mxCell id="80clTf2pWjjTo-rtNDyn-53" value="&lt;span style=&quot;font-size: 14px;&quot;&gt;dim_products&lt;/span&gt;" style="rounded=1;whiteSpace=wrap;html=1;strokeColor=light-dark(#FDD432,#261D00);strokeWidth=1;fillColor=none;fontColor=#000000;" vertex="1" parent="1">
          <mxGeometry x="831.25" y="337" width="127.5" height="47" as="geometry" />
        </mxCell>
        <mxCell id="80clTf2pWjjTo-rtNDyn-54" value="" style="endArrow=classic;html=1;rounded=0;exitX=1;exitY=0.5;exitDx=0;exitDy=0;entryX=0;entryY=0.5;entryDx=0;entryDy=0;jumpStyle=gap;" edge="1" parent="1" source="80clTf2pWjjTo-rtNDyn-35" target="80clTf2pWjjTo-rtNDyn-48">
          <mxGeometry width="50" height="50" relative="1" as="geometry">
            <mxPoint x="733" y="211" as="sourcePoint" />
            <mxPoint x="783" y="161" as="targetPoint" />
          </mxGeometry>
        </mxCell>
        <mxCell id="80clTf2pWjjTo-rtNDyn-60" value="&lt;font style=&quot;font-size: 30px;&quot;&gt;DataFlow&lt;/font&gt;" style="text;html=1;align=center;verticalAlign=middle;resizable=0;points=[];autosize=1;strokeColor=none;fillColor=none;" vertex="1" parent="1">
          <mxGeometry x="24" y="7" width="145" height="48" as="geometry" />
        </mxCell>
      </root>
    </mxGraphModel>
  </diagram>
</mxfile>
